HIERARCHY
ROOT Hips
{
	OFFSET 0.000000 100.481300 0.000000
	CHANNELS 6 Xposition Yposition Zposition Xrotation Yrotation Zrotation 
	JOINT Spine
	{
		OFFSET -0.279200 12.230698 -2.892100
		CHANNELS 3 Xrotation Yrotation Zrotation
		JOINT Spine1
		{
			OFFSET -0.232667 10.192268 -1.242267
			CHANNELS 3 Xrotation Yrotation Zrotation
			JOINT Spine1_split
			{
				OFFSET -0.232667 10.192268 -1.242267
				CHANNELS 3 Xrotation Yrotation Zrotation
				JOINT Spine2
				{
					OFFSET -0.232667 10.192268 -1.242267
					CHANNELS 3 Xrotation Yrotation Zrotation
					JOINT Neck
					{
						OFFSET -0.418800 17.814194 8.416900
						CHANNELS 3 Xrotation Yrotation Zrotation
						JOINT Head
						{
							OFFSET 0.000000 7.031097 3.806800
							CHANNELS 3 Xrotation Yrotation Zrotation
							JOINT HeadTop_End
							{
								OFFSET 0.000000 24.646606 12.978600
								CHANNELS 3 Xrotation Yrotation Zrotation
								End Site
								{
									OFFSET 0.000000 0.000000 0.000000
								}
							}
						}
					}
					JOINT LeftShoulder
					{
						OFFSET 8.476499 7.247704 -3.868750
						CHANNELS 3 Xrotation Yrotation Zrotation
						JOINT LeftShoulder_split
						{
							OFFSET 8.476499 7.247704 -3.868750
							CHANNELS 3 Xrotation Yrotation Zrotation
							JOINT LeftArm
							{
								OFFSET 9.308998 -2.777710 0.208600
								CHANNELS 3 Xrotation Yrotation Zrotation
								JOINT LeftForeArm
								{
									OFFSET 29.972298 0.000000 0.000000
									CHANNELS 3 Xrotation Yrotation Zrotation
									JOINT LeftHand
									{
										OFFSET 26.026505 0.000000 0.000000
										CHANNELS 3 Xrotation Yrotation Zrotation
										JOINT LeftHandThumb1
										{
											OFFSET 12.240501 -7.147949 9.207150
											CHANNELS 3 Xrotation Yrotation Zrotation
											JOINT LeftHandThumb2
											{
												OFFSET 4.138618 -2.389435 2.389433
												CHANNELS 3 Xrotation Yrotation Zrotation
												JOINT LeftHandThumb3
												{
													OFFSET 2.726913 -1.574387 1.574386
													CHANNELS 3 Xrotation Yrotation Zrotation
													JOINT LeftHandThumb4
													{
														OFFSET 3.941010 -2.275345 2.275342
														CHANNELS 3 Xrotation Yrotation Zrotation
														End Site
														{
															OFFSET 0.000000 0.000000 0.000000
														}
													}
												}
											}
										}
										JOINT LeftHandIndex1
										{
											OFFSET 24.424698 -1.985611 5.953459
											CHANNELS 3 Xrotation Yrotation Zrotation
											JOINT LeftHandIndex2
											{
												OFFSET 6.426697 0.000000 0.000000
												CHANNELS 3 Xrotation Yrotation Zrotation
												JOINT LeftHandIndex3
												{
													OFFSET 5.337898 0.000000 0.000000
													CHANNELS 3 Xrotation Yrotation Zrotation
													JOINT LeftHandIndex4
													{
														OFFSET 4.409401 0.000000 0.000000
														CHANNELS 3 Xrotation Yrotation Zrotation
														End Site
														{
															OFFSET 0.000000 0.000000 0.000000
														}
													}
												}
											}
										}
										JOINT LeftHandMiddle1
										{
											OFFSET 23.810104 0.000000 0.000000
											CHANNELS 3 Xrotation Yrotation Zrotation
											JOINT LeftHandMiddle2
											{
												OFFSET 7.176498 0.000000 0.000000
												CHANNELS 3 Xrotation Yrotation Zrotation
												JOINT LeftHandMiddle3
												{
													OFFSET 6.774902 0.000000 0.000000
													CHANNELS 3 Xrotation Yrotation Zrotation
													JOINT LeftHandMiddle4
													{
														OFFSET 5.403328 0.000000 0.000000
														CHANNELS 3 Xrotation Yrotation Zrotation
														End Site
														{
															OFFSET 0.000000 0.000000 0.000000
														}
													}
												}
											}
										}
										JOINT LeftHandRing1
										{
											OFFSET 22.908401 -0.839279 -6.020567
											CHANNELS 3 Xrotation Yrotation Zrotation
											JOINT LeftHandRing2
											{
												OFFSET 6.337502 0.000000 0.000000
												CHANNELS 3 Xrotation Yrotation Zrotation
												JOINT LeftHandRing3
												{
													OFFSET 5.779297 0.000000 0.000000
													CHANNELS 3 Xrotation Yrotation Zrotation
													JOINT LeftHandRing4
													{
														OFFSET 4.965698 0.000000 0.000000
														CHANNELS 3 Xrotation Yrotation Zrotation
														End Site
														{
															OFFSET 0.000000 0.000000 0.000000
														}
													}
												}
											}
										}
										JOINT LeftHandPinky1
										{
											OFFSET 20.037003 -1.530319 -10.950146
											CHANNELS 3 Xrotation Yrotation Zrotation
											JOINT LeftHandPinky2
											{
												OFFSET 5.254700 0.000000 0.000000
												CHANNELS 3 Xrotation Yrotation Zrotation
												JOINT LeftHandPinky3
												{
													OFFSET 4.810204 0.000000 0.000000
													CHANNELS 3 Xrotation Yrotation Zrotation
													JOINT LeftHandPinky4
													{
														OFFSET 3.647202 0.000000 0.000000
														CHANNELS 3 Xrotation Yrotation Zrotation
														End Site
														{
															OFFSET 0.000000 0.000000 0.000000
														}
													}
												}
											}
										}
									}
								}
							}
						}
					}
					JOINT RightShoulder
					{
						OFFSET -7.570500 7.247704 -3.868750
						CHANNELS 3 Xrotation Yrotation Zrotation
						JOINT RightShoulder_split
						{
							OFFSET -7.570500 7.247704 -3.868750
							CHANNELS 3 Xrotation Yrotation Zrotation
							JOINT RightArm
							{
								OFFSET -9.308998 -2.777710 0.208500
								CHANNELS 3 Xrotation Yrotation Zrotation
								JOINT RightForeArm
								{
									OFFSET -29.972300 0.000000 0.000000
									CHANNELS 3 Xrotation Yrotation Zrotation
									JOINT RightHand
									{
										OFFSET -26.026505 0.000000 0.000000
										CHANNELS 3 Xrotation Yrotation Zrotation
										JOINT RightHandThumb1
										{
											OFFSET -12.240601 -7.148026 9.207092
											CHANNELS 3 Xrotation Yrotation Zrotation
											JOINT RightHandThumb2
											{
												OFFSET -4.138618 -2.389435 2.389433
												CHANNELS 3 Xrotation Yrotation Zrotation
												JOINT RightHandThumb3
												{
													OFFSET -2.726974 -1.574417 1.574421
													CHANNELS 3 Xrotation Yrotation Zrotation
													JOINT RightHandThumb4
													{
														OFFSET -3.941010 -2.275345 2.275343
														CHANNELS 3 Xrotation Yrotation Zrotation
														End Site
														{
															OFFSET 0.000000 0.000000 0.000000
														}
													}
												}
											}
										}
										JOINT RightHandIndex1
										{
											OFFSET -24.424698 -1.985657 5.953444
											CHANNELS 3 Xrotation Yrotation Zrotation
											JOINT RightHandIndex2
											{
												OFFSET -6.426697 0.000000 0.000000
												CHANNELS 3 Xrotation Yrotation Zrotation
												JOINT RightHandIndex3
												{
													OFFSET -5.337898 0.000000 0.000000
													CHANNELS 3 Xrotation Yrotation Zrotation
													JOINT RightHandIndex4
													{
														OFFSET -4.409401 0.000000 0.000000
														CHANNELS 3 Xrotation Yrotation Zrotation
														End Site
														{
															OFFSET 0.000000 0.000000 0.000000
														}
													}
												}
											}
										}
										JOINT RightHandMiddle1
										{
											OFFSET -23.810097 0.000000 0.000000
											CHANNELS 3 Xrotation Yrotation Zrotation
											JOINT RightHandMiddle2
											{
												OFFSET -7.176498 0.000000 0.000000
												CHANNELS 3 Xrotation Yrotation Zrotation
												JOINT RightHandMiddle3
												{
													OFFSET -6.774902 0.000000 0.000000
													CHANNELS 3 Xrotation Yrotation Zrotation
													JOINT RightHandMiddle4
													{
														OFFSET -5.403328 0.000000 0.000000
														CHANNELS 3 Xrotation Yrotation Zrotation
														End Site
														{
															OFFSET 0.000000 0.000000 0.000000
														}
													}
												}
											}
										}
										JOINT RightHandRing1
										{
											OFFSET -22.908302 -0.839325 -6.020576
											CHANNELS 3 Xrotation Yrotation Zrotation
											JOINT RightHandRing2
											{
												OFFSET -6.337502 0.000000 0.000000
												CHANNELS 3 Xrotation Yrotation Zrotation
												JOINT RightHandRing3
												{
													OFFSET -5.779297 0.000000 0.000000
													CHANNELS 3 Xrotation Yrotation Zrotation
													JOINT RightHandRing4
													{
														OFFSET -4.965698 0.000000 0.000000
														CHANNELS 3 Xrotation Yrotation Zrotation
														End Site
														{
															OFFSET 0.000000 0.000000 0.000000
														}
													}
												}
											}
										}
										JOINT RightHandPinky1
										{
											OFFSET -20.037003 -1.530334 -10.950259
											CHANNELS 3 Xrotation Yrotation Zrotation
											JOINT RightHandPinky2
											{
												OFFSET -5.254700 0.000000 0.000000
												CHANNELS 3 Xrotation Yrotation Zrotation
												JOINT RightHandPinky3
												{
													OFFSET -4.810204 0.000000 0.000000
													CHANNELS 3 Xrotation Yrotation Zrotation
													JOINT RightHandPinky4
													{
														OFFSET -3.647202 0.000000 0.000000
														CHANNELS 3 Xrotation Yrotation Zrotation
														End Site
														{
															OFFSET 0.000000 0.000000 0.000000
														}
													}
												}
											}
										}
									}
								}
							}
						}
					}
				}
			}
		}
	}
	JOINT LeftUpLeg
	{
		OFFSET 15.427100 -6.655098 0.678600
		CHANNELS 3 Xrotation Yrotation Zrotation
		JOINT LeftLeg
		{
			OFFSET 4.081073 -39.591068 13.024000
			CHANNELS 3 Xrotation Yrotation Zrotation
			JOINT LeftFoot
			{
				OFFSET -4.081074 -37.707932 -15.979700
				CHANNELS 3 Xrotation Yrotation Zrotation
				JOINT LeftToeBase
				{
					OFFSET 5.346399 -15.068900 20.645000
					CHANNELS 3 Xrotation Yrotation Zrotation
					JOINT LeftToe_End
					{
						OFFSET 2.754700 0.931300 11.300900
						CHANNELS 3 Xrotation Yrotation Zrotation
						End Site
						{
							OFFSET 0.000000 0.000000 0.000000
						}
					}
				}
			}
		}
	}
	JOINT RightUpLeg
	{
		OFFSET -15.569500 -6.655098 0.678600
		CHANNELS 3 Xrotation Yrotation Zrotation
		JOINT RightLeg
		{
			OFFSET -4.081825 -39.591045 13.023800
			CHANNELS 3 Xrotation Yrotation Zrotation
			JOINT RightFoot
			{
				OFFSET 4.081824 -37.707954 -15.979600
				CHANNELS 3 Xrotation Yrotation Zrotation
				JOINT RightToeBase
				{
					OFFSET -5.346400 -15.068900 20.645000
					CHANNELS 3 Xrotation Yrotation Zrotation
					JOINT RightToe_End
					{
						OFFSET -2.754700 0.931300 11.300900
						CHANNELS 3 Xrotation Yrotation Zrotation
						End Site
						{
							OFFSET 0.000000 0.000000 0.000000
						}
					}
				}
			}
		}
	}
}
MOTION
Frames: 4
Frame Time: 0.016667
0.325153 96.206253 -1.131065 2.828257 -5.505352 -1.169472 -0.414110 -1.031349 1.023039 -1.124193 -0.763623 0.960462 0.000000 0.000000 0.000000 -1.125714 -0.723787 0.985440 -4.895965 1.540610 -0.449521 -0.934612 6.880853 -0.774390 0.000000 -0.000000 0.000000 -1.469254 10.517226 -4.984828 0.000000 0.000000 0.000000 43.879659 -68.213687 -24.791746 0.000003 -21.268108 -0.000011 -25.251740 7.009046 0.097472 -3.405734 19.076288 14.453259 15.249475 14.620645 -5.800670 4.892159 5.223026 0.075633 0.000002 -0.000002 -0.000000 0.380316 2.260834 -19.095155 0.158446 1.471496 -12.290086 0.039719 0.740000 -6.144020 -0.000003 0.000001 0.000001 0.379685 2.259006 -19.079143 0.158856 1.473384 -12.306102 0.039712 0.740003 -6.144019 0.000000 -0.000001 -0.000001 0.380316 2.260834 -19.095155 0.158443 1.471498 -12.290086 0.039713 0.739997 -6.144017 0.000003 0.000002 0.000002 1.696002 6.096985 -18.680651 0.153589 -2.584207 -12.789179 0.039717 0.740004 -6.144016 0.000001 -0.000001 -0.000001 3.669362 5.665988 1.464133 0.000000 0.000000 0.000000 -1.701535 36.578661 65.584979 -0.000003 22.959749 -0.000002 -19.091379 -11.054778 9.870842 1.944083 -20.994839 -11.060297 4.637204 -8.634116 -0.225388 -1.273762 0.137309 -2.094873 -0.000002 -0.000001 -0.000000 0.194544 -1.636470 13.558128 0.162595 -1.497877 12.390179 0.040760 -0.753334 6.194041 0.000002 -0.000002 -0.000003 0.194545 -1.636470 13.558127 0.162592 -1.497879 12.390177 0.040758 -0.753337 6.194043 -0.000000 -0.000000 0.000000 0.194544 -1.636470 13.558126 0.162596 -1.497881 12.390177 0.040762 -0.753337 6.194039 0.000000 0.000001 0.000002 0.194544 -1.636470 13.558127 0.162595 -1.497880 12.390178 0.040761 -0.753334 6.194042 0.000003 -0.000000 0.000002 -15.280149 16.861811 13.208422 17.992317 8.410818 4.045432 -4.196392 4.481959 -12.889123 0.000002 -0.000009 0.000002 -0.000000 -0.000000 0.000000 -14.745362 -21.314947 -4.563342 17.243263 9.315300 -3.241397 -5.893555 1.584794 3.805998 -0.000003 -0.000002 -0.000001 -0.000000 -0.000000 0.000000 
0.344839 96.200867 -1.139589 2.805741 -5.464693 -1.146942 -0.423821 -1.071334 1.019582 -1.133012 -0.794373 0.957289 0.000000 0.000000 0.000000 -1.134493 -0.754703 0.983291 -4.912534 1.560737 -0.428862 -0.893665 7.011523 -0.803163 0.000000 -0.000000 0.000000 -1.470419 10.513381 -4.967266 0.000000 0.000000 0.000000 43.640179 -68.242838 -25.097583 -0.000021 -21.297092 -0.000009 -25.352243 7.076688 0.079869 -3.405741 19.076291 14.453257 15.249471 14.620650 -5.800670 4.892158 5.223032 0.075634 0.000004 -0.000003 -0.000002 0.380311 2.260833 -19.095156 0.158445 1.471497 -12.290087 0.039713 0.740001 -6.144018 -0.000002 -0.000000 0.000001 0.379675 2.259008 -19.079143 0.158852 1.473381 -12.306102 0.039713 0.740003 -6.144021 -0.000005 0.000000 -0.000001 0.380311 2.260833 -19.095155 0.158443 1.471498 -12.290085 0.039715 0.739996 -6.144020 0.000001 -0.000001 -0.000000 1.695997 6.096985 -18.680651 0.153589 -2.584207 -12.789182 0.039718 0.740003 -6.144015 -0.000002 -0.000002 -0.000000 3.665456 5.656878 1.475269 0.000000 0.000000 0.000000 -1.703457 36.697531 65.596700 -0.000006 22.913190 0.000011 -18.957491 -10.909269 10.116181 1.959323 -20.982041 -11.038623 4.637210 -8.634125 -0.225404 -1.273761 0.137303 -2.094870 -0.000000 0.000000 0.000001 0.194545 -1.636465 13.558107 0.162597 -1.497882 12.390201 0.040766 -0.753337 6.194042 0.000002 -0.000001 -0.000002 0.194546 -1.636465 13.558107 0.162598 -1.497885 12.390197 0.040764 -0.753337 6.194042 0.000001 -0.000001 -0.000002 0.194543 -1.636465 13.558106 0.162597 -1.497886 12.390200 0.040768 -0.753337 6.194042 0.000003 -0.000000 -0.000001 0.194545 -1.636465 13.558107 0.162598 -1.497886 12.390199 0.040767 -0.753335 6.194044 0.000002 -0.000001 0.000001 -15.260307 16.857938 13.182297 17.995744 8.407130 4.002603 -4.199074 4.452304 -12.844693 0.000002 -0.000009 0.000002 -0.000000 0.000000 0.000000 -14.755797 -21.340982 -4.629269 17.270854 9.315929 -3.230975 -5.904641 1.587815 3.814004 -0.000000 0.000000 0.000001 0.000000 0.000000 -0.000000 
0.365794 96.192795 -1.148210 2.785939 -5.427018 -1.115479 -0.428943 -1.108906 1.012242 -1.138106 -0.823449 0.951492 0.000000 0.000000 0.000000 -1.139511 -0.784102 0.978433 -4.937642 1.583682 -0.410673 -0.868418 7.152526 -0.837619 -0.000000 0.000000 -0.000000 -1.471644 10.508768 -4.946811 0.000000 0.000000 0.000000 43.432066 -68.283095 -25.363723 -0.000000 -21.330129 0.000006 -25.465250 7.139522 0.050440 -3.405738 19.076293 14.453261 15.249468 14.620650 -5.800670 4.892155 5.223028 0.075633 -0.000001 -0.000003 -0.000002 0.380315 2.260834 -19.095158 0.158447 1.471496 -12.290088 0.039712 0.740001 -6.144019 0.000004 -0.000000 0.000000 0.379682 2.259008 -19.079141 0.158857 1.473382 -12.306100 0.039716 0.740004 -6.144019 -0.000001 0.000000 0.000000 0.380315 2.260834 -19.095156 0.158440 1.471497 -12.290089 0.039714 0.739997 -6.144019 -0.000001 -0.000000 -0.000000 1.696002 6.096986 -18.680649 0.153591 -2.584206 -12.789179 0.039714 0.740003 -6.144013 0.000000 -0.000000 -0.000001 3.663049 5.650921 1.476512 0.000000 0.000000 0.000000 -1.717214 36.859573 65.610333 -0.000006 22.842787 -0.000008 -18.751861 -10.780440 10.391279 2.004067 -20.944346 -10.974923 4.637197 -8.634136 -0.225441 -1.273758 0.137312 -2.094874 -0.000000 0.000001 0.000002 0.194545 -1.636475 13.558133 0.162599 -1.497881 12.390192 0.040767 -0.753343 6.194028 0.000003 -0.000001 -0.000001 0.194545 -1.636474 13.558133 0.162598 -1.497882 12.390191 0.040768 -0.753343 6.194027 0.000003 -0.000001 -0.000001 0.194545 -1.636475 13.558134 0.162599 -1.497881 12.390188 0.040768 -0.753342 6.194028 0.000001 -0.000001 -0.000003 0.194545 -1.636475 13.558133 0.162598 -1.497883 12.390195 0.040767 -0.753341 6.194026 0.000002 0.000000 0.000001 -15.241808 16.857180 13.144578 18.002080 8.403140 3.963846 -4.202675 4.424539 -12.800753 0.000002 -0.000009 0.000002 -0.000000 0.000000 -0.000000 -14.781774 -21.368472 -4.709602 17.311717 9.316446 -3.220611 -5.922116 1.597372 3.822684 -0.000002 0.000007 0.000001 -0.000000 0.000000 -0.000000 
0.390040 96.181564 -1.156653 2.774424 -5.399067 -1.068749 -0.427609 -1.142250 0.999090 -1.138049 -0.849449 0.942093 0.000000 0.000000 0.000000 -1.139338 -0.810644 0.969838 -4.977107 1.608950 -0.396729 -0.867554 7.298594 -0.878809 -0.000000 0.000000 -0.000000 -1.472791 10.501847 -4.921264 0.000000 0.000000 0.000000 43.262811 -68.342258 -25.576250 -0.000004 -21.363964 -0.000036 -25.588665 7.196879 -0.002523 -3.405743 19.076290 14.453261 15.249468 14.620650 -5.800674 4.892161 5.223026 0.075632 0.000000 -0.000001 0.000000 0.380313 2.260832 -19.095158 0.158437 1.471496 -12.290086 0.039714 0.739999 -6.144019 0.000001 -0.000001 -0.000001 0.379682 2.259005 -19.079141 0.158852 1.473383 -12.306102 0.039719 0.740004 -6.144019 0.000001 0.000002 -0.000001 0.380313 2.260832 -19.095153 0.158439 1.471497 -12.290084 0.039713 0.739996 -6.144018 -0.000002 -0.000002 -0.000001 1.695998 6.096982 -18.680651 0.153588 -2.584206 -12.789183 0.039717 0.740002 -6.144014 0.000001 -0.000000 0.000001 3.662695 5.649603 1.468054 0.000000 0.000000 0.000000 -1.746183 37.070681 65.621562 -0.000021 22.738562 0.000022 -18.460277 -10.670049 10.687679 2.076865 -20.882760 -10.871373 4.637201 -8.634121 -0.225410 -1.273761 0.137305 -2.094890 -0.000001 0.000000 0.000001 0.194551 -1.636475 13.558107 0.162607 -1.497870 12.390200 0.040762 -0.753338 6.194042 0.000001 0.000000 -0.000000 0.194551 -1.636474 13.558107 0.162602 -1.497873 12.390194 0.040756 -0.753339 6.194043 -0.000000 0.000000 -0.000000 0.194551 -1.636475 13.558107 0.162603 -1.497875 12.390196 0.040756 -0.753339 6.194044 -0.000000 -0.000002 -0.000001 0.194551 -1.636475 13.558107 0.162604 -1.497873 12.390197 0.040760 -0.753338 6.194042 -0.000001 0.000001 0.000003 -15.227260 16.873412 13.086426 18.008444 8.399069 3.935763 -4.210308 4.395395 -12.759191 0.000002 -0.000008 0.000002 -0.000000 0.000000 0.000000 -14.836390 -21.387124 -4.811987 17.371341 9.316506 -3.209578 -5.943816 1.612226 3.832578 -0.000001 0.000007 -0.000001 0.000000 0.000000 0.000000 
